<svg width="170" height="96" viewBox="0 0 170 96" fill="none" xmlns="http://www.w3.org/2000/svg">
<g clip-path="url(#clip0_8_215)">
<g filter="url(#filter0_d_8_215)">
<rect width="170" height="96" rx="16" fill="white"/>
</g>
<g clip-path="url(#clip1_8_215)">
<path d="M63.5261 54.6792C63.3645 54.2892 63.2131 53.8792 63.0515 53.5292L62.3042 51.8592L62.2739 51.8292C60.0524 47.0292 57.6793 42.1492 55.1649 37.3492L55.0639 37.1492C54.8115 36.6792 54.559 36.1592 54.2965 35.6792C53.9734 35.1092 53.6603 34.4992 53.1453 33.9192C52.6433 33.3123 52.0115 32.8234 51.2956 32.4877C50.5796 32.1519 49.7973 31.9778 49.0051 31.9778C48.2129 31.9778 47.4306 32.1519 46.7147 32.4877C45.9987 32.8234 45.3669 33.3123 44.8649 33.9192C44.3903 34.4992 44.0369 35.1092 43.7137 35.6792C43.4613 36.1992 43.2088 36.7092 42.9463 37.1792L42.8453 37.3792C40.3713 42.1792 37.9579 47.0592 35.7363 51.8592L35.6757 51.9192C35.4535 52.4392 35.191 52.9792 34.9385 53.5592C34.777 53.9092 34.6154 54.2892 34.4538 54.7092C34.0176 55.809 33.8783 57.0024 34.0497 58.1717C34.221 59.341 34.6971 60.446 35.431 61.3776C36.1648 62.3093 37.1312 63.0355 38.2348 63.4847C39.3384 63.9338 40.5411 64.0905 41.7244 63.9392C42.8589 63.7913 43.9513 63.4171 44.9356 62.8392C46.2484 62.1092 47.5106 61.0492 48.9243 59.5192C50.3381 61.0492 51.6306 62.1092 52.9131 62.8492C54.1463 63.5661 55.5429 63.9617 56.9725 63.9992C58.6279 64.006 60.2299 63.4195 61.4827 62.3479C62.7356 61.2764 63.5546 59.7921 63.7886 58.1692C64.0591 57.003 63.9676 55.7831 63.5261 54.6692V54.6792ZM49.0253 56.3392C47.2884 54.1392 46.1575 52.1192 45.7737 50.3892C45.6148 49.7481 45.5805 49.083 45.6728 48.4292C45.7434 47.9192 45.9353 47.4692 46.1979 47.0892C46.8037 46.2192 47.864 45.6792 49.0253 45.6792C49.5768 45.6625 50.1238 45.7817 50.6173 46.0261C51.1108 46.2704 51.5353 46.6323 51.8528 47.0792C52.1153 47.4792 52.3072 47.9192 52.3678 48.4292C52.4687 49.0092 52.4284 49.6792 52.2668 50.3892C51.8831 52.0892 50.7521 54.1292 49.0253 56.3392ZM61.8902 57.8192C61.7755 58.6432 61.4447 59.423 60.9309 60.0809C60.4171 60.7389 59.7382 61.252 58.9618 61.5692C58.1943 61.8892 57.3461 61.9792 56.5181 61.8892C55.7102 61.7892 54.9024 61.5292 54.0743 61.0492C52.6995 60.2077 51.4632 59.1622 50.4087 57.9492C52.5293 55.3492 53.8118 52.9792 54.2965 50.8692C54.5287 49.8692 54.559 48.9692 54.4581 48.1392C54.332 47.3525 54.0357 46.602 53.5896 45.9392C53.0803 45.2205 52.4004 44.6367 51.6098 44.2391C50.8192 43.8415 49.9421 43.6424 49.0556 43.6592C47.1875 43.6592 45.5213 44.5192 44.5115 45.9292C44.0569 46.5904 43.7631 47.3468 43.6532 48.1392C43.5219 48.9792 43.5522 49.9092 43.8147 50.8692C44.2994 52.9792 45.6122 55.3792 47.7025 57.9692C46.6659 59.2054 45.4267 60.2601 44.0369 61.0892C43.1987 61.5692 42.401 61.8192 41.5932 61.9192C40.3368 62.0786 39.0678 61.7404 38.0618 60.9783C37.0559 60.2162 36.3943 59.0917 36.221 57.8492C36.12 57.0492 36.1907 56.2492 36.5138 55.3492C36.6148 55.0292 36.7663 54.7092 36.9279 54.3292C37.15 53.8092 37.4126 53.2692 37.665 52.7292L37.7054 52.6592C39.8866 47.8892 42.2697 43.0192 44.7437 38.2492L44.8447 38.0492C45.0972 37.5692 45.3496 37.0592 45.6122 36.5792C45.8747 36.0692 46.1575 35.5792 46.521 35.1792C46.8357 34.8072 47.2289 34.5081 47.6729 34.3028C48.1169 34.0976 48.6009 33.9912 49.0909 33.9912C49.581 33.9912 50.065 34.0976 50.509 34.3028C50.953 34.5081 51.3462 34.8072 51.6609 35.1792C52.0143 35.5792 52.3072 36.0692 52.5697 36.5792C52.8222 37.0592 53.0746 37.5792 53.3372 38.0492L53.4382 38.2492C55.9021 43.0192 58.2852 47.8892 60.5068 52.6592L60.5371 52.6892C60.7996 53.2092 61.0218 53.7892 61.2742 54.2892C61.4358 54.6792 61.5974 54.9892 61.6984 55.3192C61.8902 56.2192 61.9912 57.0192 61.8902 57.8192V57.8192ZM75.9467 56.1192C75.1858 56.1302 74.4321 55.9715 73.7416 55.6547C73.0511 55.3379 72.4415 54.8712 71.958 54.2892C70.8715 53.0492 70.2948 51.4503 70.3423 49.8092C70.3256 48.1324 70.9209 46.5061 72.0185 45.2292C72.5263 44.6398 73.1583 44.1678 73.8701 43.8465C74.582 43.5251 75.3563 43.3622 76.1385 43.3692C76.8746 43.3493 77.6037 43.515 78.2573 43.8509C78.9109 44.1868 79.4675 44.6817 79.8748 45.2892L79.9758 43.7192H82.9244V55.7992H79.9657L79.8647 54.0392C79.4448 54.6879 78.8644 55.2195 78.1787 55.5835C77.493 55.9476 76.7246 56.132 75.9467 56.1192V56.1192ZM76.7141 53.2392C77.2998 53.2392 77.8148 53.0792 78.2995 52.7892C78.7438 52.4692 79.1074 52.0492 79.3901 51.5392C79.6426 51.0292 79.7738 50.4192 79.7738 49.7392C79.8132 49.1486 79.6971 48.558 79.4369 48.0251C79.1767 47.4923 78.7813 47.0354 78.2894 46.6992C77.8168 46.4076 77.271 46.253 76.7141 46.253C76.1572 46.253 75.6115 46.4076 75.1388 46.6992C74.6945 47.0192 74.331 47.4392 74.0483 47.9492C73.7812 48.5117 73.6498 49.1279 73.6645 49.7492C73.6252 50.3398 73.7412 50.9304 74.0014 51.4633C74.2616 51.9962 74.657 52.453 75.1489 52.7892C75.6235 53.0792 76.1385 53.2392 76.7141 53.2392ZM87.9734 40.4592C87.9734 40.8092 87.9129 41.1292 87.7513 41.3892C87.5897 41.6392 87.3676 41.8692 87.0747 42.0292C86.7819 42.1892 86.4688 42.2492 86.1457 42.2492C85.8226 42.2492 85.4994 42.1892 85.2066 42.0292C84.9296 41.8765 84.6967 41.6562 84.53 41.3892C84.3736 41.1043 84.2969 40.7833 84.3079 40.4592C84.3079 40.0992 84.3785 39.7792 84.53 39.5292C84.6916 39.2292 84.9238 39.0492 85.2066 38.8892C85.4994 38.7292 85.8125 38.6592 86.1457 38.6592C86.4671 38.6519 86.785 38.7273 87.0682 38.878C87.3514 39.0287 87.5902 39.2497 87.7614 39.5192C87.9083 39.8108 87.9811 40.1335 87.9734 40.4592V40.4592ZM84.5401 55.7592V43.6992H87.7513V55.7792H84.53L84.5401 55.7592ZM96.3346 46.8592V46.8992C96.1832 46.8292 95.9812 46.7992 95.8297 46.7692C95.6278 46.7292 95.4662 46.7292 95.2743 46.7292C94.3756 46.7292 93.699 46.9892 93.2547 47.5292C92.77 48.0792 92.5479 48.8492 92.5479 49.8392V55.7692H89.3266V43.6892H92.2853L92.3863 45.5192C92.7094 44.8792 93.0932 44.3992 93.6384 44.0392C94.1808 43.6894 94.8194 43.5147 95.4662 43.5392C95.6984 43.5392 95.9206 43.5592 96.1125 43.5992C96.2134 43.6292 96.274 43.6292 96.3346 43.6592V46.8592V46.8592ZM97.6272 55.7592V38.7392H100.838V45.2392C101.293 44.6592 101.808 44.2092 102.454 43.8592C103.477 43.3624 104.639 43.2215 105.753 43.4592C106.867 43.6969 107.868 44.2993 108.594 45.1692C109.683 46.4118 110.259 48.0147 110.209 49.6592C110.226 51.336 109.631 52.9624 108.533 54.2392C108.025 54.8286 107.393 55.3006 106.681 55.6219C105.97 55.9433 105.195 56.1062 104.413 56.0992C103.677 56.1192 102.948 55.9534 102.294 55.6175C101.641 55.2817 101.084 54.7867 100.677 54.1792L100.576 55.7492L97.6272 55.7792V55.7592ZM103.837 53.2392C104.413 53.2392 104.928 53.0792 105.413 52.7892C105.857 52.4692 106.221 52.0492 106.503 51.5392C106.766 51.0292 106.887 50.4192 106.887 49.7392C106.887 49.0692 106.766 48.4592 106.503 47.9492C106.238 47.4574 105.866 47.0304 105.413 46.6992C104.94 46.4076 104.394 46.253 103.837 46.253C103.281 46.253 102.735 46.4076 102.262 46.6992C101.808 47.0192 101.454 47.4392 101.161 47.9492C100.894 48.5117 100.763 49.1279 100.778 49.7492C100.738 50.3398 100.854 50.9304 101.115 51.4633C101.375 51.9962 101.77 52.453 102.262 52.7892C102.737 53.0792 103.252 53.2392 103.837 53.2392ZM111.421 55.7692V43.6892H114.38L114.481 45.2592C114.853 44.6574 115.38 44.1649 116.009 43.8326C116.637 43.5003 117.344 43.3403 118.056 43.3692C118.87 43.3553 119.67 43.5793 120.356 44.0133C121.042 44.4473 121.583 45.072 121.913 45.8092C122.266 46.5692 122.458 47.5092 122.458 48.5592V55.7992H119.237V48.9792C119.237 48.1392 119.045 47.4792 118.661 46.9892C118.278 46.5092 117.753 46.2492 117.086 46.2492C116.601 46.2492 116.177 46.3492 115.804 46.5692C115.45 46.7992 115.157 47.0892 114.935 47.4992C114.711 47.9137 114.599 48.379 114.612 48.8492V55.7692H111.421V55.7692ZM124.064 55.7692V38.7292H127.285V45.2292C127.721 44.646 128.289 44.1715 128.943 43.8434C129.597 43.5153 130.319 43.3427 131.052 43.3392C131.813 43.3282 132.566 43.487 133.257 43.8038C133.947 44.1206 134.557 44.5872 135.04 45.1692C136.122 46.4117 136.694 48.0098 136.646 49.6492C136.664 51.3262 136.068 52.9528 134.97 54.2292C134.462 54.8186 133.83 55.2906 133.118 55.6119C132.406 55.9333 131.632 56.0962 130.85 56.0892C130.114 56.1092 129.385 55.9434 128.731 55.6075C128.077 55.2717 127.521 54.7767 127.113 54.1692L127.023 55.7392L124.064 55.7692V55.7692ZM130.304 53.2392C130.89 53.2392 131.405 53.0792 131.88 52.7892C132.334 52.4692 132.688 52.0492 132.98 51.5392C133.233 51.0292 133.364 50.4192 133.364 49.7392C133.404 49.1486 133.287 48.558 133.027 48.0251C132.767 47.4923 132.372 47.0354 131.88 46.6992C131.407 46.4076 130.861 46.253 130.304 46.253C129.748 46.253 129.202 46.4076 128.729 46.6992C128.285 47.0192 127.921 47.4392 127.639 47.9492C127.357 48.5066 127.225 49.1265 127.255 49.7492C127.215 50.3398 127.332 50.9304 127.592 51.4633C127.852 51.9962 128.247 52.453 128.739 52.7892C129.214 53.0792 129.699 53.2392 130.304 53.2392Z" fill="#FF385C"/>
</g>
</g>
<defs>
<filter id="filter0_d_8_215" x="-40" y="-10" width="250" height="176" filterUnits="userSpaceOnUse" color-interpolation-filters="sRGB">
<feFlood flood-opacity="0" result="BackgroundImageFix"/>
<feColorMatrix in="SourceAlpha" type="matrix" values="0 0 0 0 0 0 0 0 0 0 0 0 0 0 0 0 0 0 127 0" result="hardAlpha"/>
<feOffset dy="30"/>
<feGaussianBlur stdDeviation="20"/>
<feColorMatrix type="matrix" values="0 0 0 0 0.831373 0 0 0 0 0.85098 0 0 0 0 0.909804 0 0 0 0.2 0"/>
<feBlend mode="normal" in2="BackgroundImageFix" result="effect1_dropShadow_8_215"/>
<feBlend mode="normal" in="SourceGraphic" in2="effect1_dropShadow_8_215" result="shape"/>
</filter>
<clipPath id="clip0_8_215">
<rect width="170" height="96" fill="white"/>
</clipPath>
<clipPath id="clip1_8_215">
<rect width="103" height="32" fill="white" transform="translate(34 32)"/>
</clipPath>
</defs>
</svg>
