<svg width="40" height="40" viewBox="0 0 40 40" fill="none" xmlns="http://www.w3.org/2000/svg">
<circle cx="20" cy="20" r="20" fill="#563FEB"/>
<path d="M16.3852 21.9233H14.539C13.5194 21.9233 12.6929 22.7499 12.6929 23.7695V31.1541C12.6929 32.1737 13.5194 33.0003 14.539 33.0003H16.3852C17.4048 33.0003 18.2313 32.1737 18.2313 31.1541V23.7695C18.2313 22.7499 17.4048 21.9233 16.3852 21.9233Z" stroke="white" stroke-width="2" stroke-linecap="round" stroke-linejoin="round"/>
<path d="M27.4618 21.9233H25.6157C24.5961 21.9233 23.7695 22.7499 23.7695 23.7695V31.1541C23.7695 32.1737 24.5961 33.0003 25.6157 33.0003H27.4618C28.4814 33.0003 29.308 32.1737 29.308 31.1541V23.7695C29.308 22.7499 28.4814 21.9233 27.4618 21.9233Z" stroke="white" stroke-width="2" stroke-linecap="round" stroke-linejoin="round"/>
<path d="M9 25.6154V21C9 17.8174 10.2643 14.7652 12.5147 12.5147C14.7652 10.2643 17.8174 9 21 9C24.1826 9 27.2348 10.2643 29.4853 12.5147C31.7357 14.7652 33 17.8174 33 21V25.6154" stroke="white" stroke-width="2" stroke-linecap="round" stroke-linejoin="round"/>
</svg>
