<svg width="170" height="96" viewBox="0 0 170 96" fill="none" xmlns="http://www.w3.org/2000/svg">
<rect width="170" height="96" fill="white"/>
<rect width="170" height="96" rx="16" fill="white"/>
<g clip-path="url(#clip0_8_185)">
<path d="M109.364 62.1021L117.704 52.8655L109.364 43.6277H118.163L122.294 48.1148L126.271 43.6277H134.763L126.463 52.8274L134.877 62.1021H126.042L121.949 57.5781L117.895 62.1021H109.364Z" fill="#FF6600"/>
<path d="M109.364 39.4864H99.9187V43.6277H109.364V49.869H99.9187V55.5977H109.364V62.1021H92.9766V33H109.364V39.4864Z" fill="#FF6600"/>
<path d="M86.0635 33V44.91H85.9874C84.457 43.176 82.5448 42.5734 80.3261 42.5734C75.7813 42.5734 72.3578 45.6189 71.1561 49.6453C69.7857 45.2087 66.2513 42.4903 61.0104 42.4903C56.7543 42.4903 53.3935 44.3734 51.6396 47.442V43.6281H42.8422V39.4873H52.4426V33H35V62.1026H42.8422V49.869H50.6587C50.4257 50.7677 50.3013 51.7299 50.3013 52.7451C50.3013 58.8159 55.0061 63.0754 61.0104 63.0754C66.0596 63.0754 69.387 60.7389 71.147 56.4789H64.4265C63.5174 57.7586 62.8278 58.1387 61.0104 58.1387C58.903 58.1387 57.0861 56.3263 57.0861 54.1779H70.7704C71.3639 58.9997 75.1743 63.1581 80.4035 63.1581C82.6591 63.1581 84.7244 62.0644 85.9874 60.2177H86.0635V62.1017H92.9765V33H86.0635ZM57.3043 49.956C57.7404 48.1076 59.1948 46.8994 61.0104 46.8994C63.0091 46.8994 64.3896 48.0703 64.7526 49.956C64.9057 49.956 57.3043 49.956 57.3043 49.956ZM81.8683 57.6711C79.32 57.6711 77.7365 55.3307 77.7365 52.887C77.7365 50.2749 79.1139 47.763 81.8683 47.763C84.7243 47.763 85.8622 50.2749 85.8622 52.887C85.8617 55.3641 84.6561 57.6711 81.8683 57.6711Z" fill="#652C8F"/>
</g>
<defs>
<clipPath id="clip0_8_185">
<rect width="100" height="30" fill="white" transform="translate(35 33)"/>
</clipPath>
</defs>
</svg>
