<svg width="170" height="96" viewBox="0 0 170 96" fill="none" xmlns="http://www.w3.org/2000/svg">
<rect width="170" height="96" rx="16" fill="white"/>
<g clip-path="url(#clip0_8_193)">
<path d="M78.4275 48.4105C78.4275 52.8522 74.9384 56.1252 70.6564 56.1252C66.3744 56.1252 62.8853 52.8522 62.8853 48.4105C62.8853 43.9374 66.3744 40.6957 70.6564 40.6957C74.9384 40.6957 78.4275 43.9374 78.4275 48.4105ZM75.0257 48.4105C75.0257 45.6348 73.0035 43.7357 70.6564 43.7357C68.3093 43.7357 66.2871 45.6348 66.2871 48.4105C66.2871 51.1583 68.3093 53.0852 70.6564 53.0852C73.0035 53.0852 75.0257 51.1548 75.0257 48.4105Z" fill="#EA4335"/>
<path d="M95.1922 48.4105C95.1922 52.8522 91.703 56.1252 87.421 56.1252C83.1391 56.1252 79.6499 52.8522 79.6499 48.4105C79.6499 43.9409 83.1391 40.6957 87.421 40.6957C91.703 40.6957 95.1922 43.9374 95.1922 48.4105ZM91.7903 48.4105C91.7903 45.6348 89.7681 43.7357 87.421 43.7357C85.074 43.7357 83.0517 45.6348 83.0517 48.4105C83.0517 51.1583 85.074 53.0852 87.421 53.0852C89.7681 53.0852 91.7903 51.1548 91.7903 48.4105Z" fill="#FBBC05"/>
<path d="M111.258 41.1618V55.0122C111.258 60.7096 107.884 63.0365 103.895 63.0365C100.141 63.0365 97.8811 60.5357 97.0289 58.4905L99.9907 57.2626C100.518 58.5183 101.81 60 103.892 60C106.445 60 108.027 58.4313 108.027 55.4783V54.3687H107.909C107.147 55.3044 105.68 56.1218 103.829 56.1218C99.9558 56.1218 96.4072 52.7618 96.4072 48.4383C96.4072 44.0835 99.9558 40.6957 103.829 40.6957C105.677 40.6957 107.144 41.5131 107.909 42.4209H108.027V41.1652H111.258V41.1618ZM108.268 48.4383C108.268 45.7218 106.449 43.7357 104.133 43.7357C101.786 43.7357 99.8195 45.7218 99.8195 48.4383C99.8195 51.127 101.786 53.0852 104.133 53.0852C106.449 53.0852 108.268 51.127 108.268 48.4383Z" fill="#4285F4"/>
<path d="M116.585 33.0435V55.6522H113.267V33.0435H116.585Z" fill="#34A853"/>
<path d="M129.514 50.9495L132.155 52.7026C131.303 53.9582 129.249 56.1217 125.701 56.1217C121.3 56.1217 118.013 52.7339 118.013 48.4069C118.013 43.8191 121.328 40.6921 125.32 40.6921C129.34 40.6921 131.306 43.8782 131.949 45.6L132.302 46.4765L121.946 50.7478C122.739 52.2956 123.972 53.0852 125.701 53.0852C127.433 53.0852 128.634 52.2365 129.514 50.9495ZM121.387 48.1739L128.31 45.3113C127.929 44.3478 126.783 43.6765 125.435 43.6765C123.706 43.6765 121.3 45.1965 121.387 48.1739V48.1739Z" fill="#EA4335"/>
<path d="M50.3258 46.4035V43.1304H61.401C61.5092 43.7008 61.5651 44.3756 61.5651 45.1061C61.5651 47.5617 60.8911 50.5982 58.7186 52.7617C56.6056 54.953 53.9058 56.1217 50.3293 56.1217C43.7002 56.1217 38.126 50.7443 38.126 44.1426C38.126 37.5408 43.7002 32.1635 50.3293 32.1635C53.9966 32.1635 56.6091 33.5965 58.5719 35.4643L56.2528 37.7739C54.8453 36.4591 52.9383 35.4365 50.3258 35.4365C45.485 35.4365 41.699 39.3217 41.699 44.1426C41.699 48.9635 45.485 52.8487 50.3258 52.8487C53.4657 52.8487 55.2539 51.593 56.3995 50.4521C57.3286 49.5269 57.9398 48.2052 58.1808 46.4L50.3258 46.4035V46.4035Z" fill="#4285F4"/>
</g>
<defs>
<clipPath id="clip0_8_193">
<rect width="95" height="32" fill="white" transform="translate(38 32)"/>
</clipPath>
</defs>
</svg>
