<svg width="120" height="36" viewBox="0 0 120 36" fill="none" xmlns="http://www.w3.org/2000/svg">
<path d="M58.4104 22.5326L62.3331 24.5443C61.5129 25.6037 60.4847 26.4546 59.2485 27.097C58.0122 27.7394 56.6631 28.0606 55.201 28.0606C53.5606 28.0606 52.0628 27.6605 50.7077 26.8603C49.3644 26.0601 48.2887 24.9895 47.4804 23.6483C46.6839 22.2959 46.2857 20.8026 46.2857 19.1684C46.2857 17.9287 46.5175 16.7735 46.9811 15.7028C47.4447 14.6209 48.0806 13.6742 48.889 12.8627C49.7092 12.04 50.6601 11.3976 51.7418 10.9355C52.8236 10.4735 53.9766 10.2424 55.201 10.2424C56.6631 10.2424 58.0122 10.5636 59.2485 11.206C60.4847 11.8484 61.5129 12.7106 62.3331 13.7925L58.4104 15.7874C57.9944 15.3366 57.5011 14.9872 56.9305 14.7392C56.3718 14.4913 55.7953 14.3673 55.201 14.3673C54.3451 14.3673 53.5724 14.5927 52.883 15.0435C52.1935 15.4831 51.6467 16.0691 51.2426 16.8017C50.8384 17.523 50.6364 18.3119 50.6364 19.1684C50.6364 20.0137 50.8384 20.8026 51.2426 21.5352C51.6467 22.2565 52.1935 22.8369 52.883 23.2764C53.5724 23.7159 54.3451 23.9357 55.201 23.9357C55.8191 23.9357 56.4075 23.8117 56.9662 23.5638C57.5249 23.3046 58.0063 22.9608 58.4104 22.5326Z" fill="#5828E3"/>
<path d="M72.8225 28.0606C71.1821 28.0606 69.6843 27.6605 68.3292 26.8603C66.986 26.0601 65.9102 24.9895 65.1019 23.6483C64.3055 22.2959 63.9072 20.8026 63.9072 19.1684C63.9072 17.9287 64.139 16.7735 64.6026 15.7028C65.0662 14.6209 65.7022 13.6742 66.5105 12.8627C67.3307 12.04 68.2817 11.3976 69.3634 10.9355C70.4451 10.4735 71.5981 10.2424 72.8225 10.2424C74.4629 10.2424 75.9547 10.6425 77.2979 11.4427C78.6531 12.2429 79.7288 13.3192 80.5253 14.6716C81.3336 16.024 81.7377 17.523 81.7377 19.1684C81.7377 20.3969 81.5059 21.5464 81.0423 22.6171C80.5787 23.6878 79.9369 24.6345 79.1167 25.4572C78.3083 26.2686 77.3633 26.9054 76.2816 27.3675C75.2118 27.8296 74.0587 28.0606 72.8225 28.0606ZM72.8225 23.9357C73.6902 23.9357 74.4688 23.7159 75.1583 23.2764C75.8477 22.8369 76.3886 22.2565 76.7809 21.5352C77.185 20.8139 77.3871 20.025 77.3871 19.1684C77.3871 18.2893 77.1791 17.4892 76.763 16.7679C76.3589 16.0353 75.8061 15.4549 75.1048 15.0266C74.4153 14.5871 73.6546 14.3673 72.8225 14.3673C71.9666 14.3673 71.194 14.5871 70.5045 15.0266C69.8151 15.4662 69.2683 16.0522 68.8641 16.7848C68.46 17.5173 68.2579 18.3119 68.2579 19.1684C68.2579 20.0588 68.4659 20.8646 68.882 21.5859C69.298 22.3072 69.8507 22.882 70.5402 23.3102C71.2415 23.7272 72.0023 23.9357 72.8225 23.9357Z" fill="#5828E3"/>
<path d="M95.6385 22.5326L99.5612 24.5443C98.741 25.6037 97.7128 26.4546 96.4766 27.097C95.2403 27.7394 93.8912 28.0606 92.4291 28.0606C90.7887 28.0606 89.2909 27.6605 87.9358 26.8603C86.5925 26.0601 85.5168 24.9895 84.7085 23.6483C83.912 22.2959 83.5138 20.8026 83.5138 19.1684C83.5138 17.9287 83.7456 16.7735 84.2092 15.7028C84.6728 14.6209 85.3087 13.6742 86.1171 12.8627C86.9373 12.04 87.8882 11.3976 88.9699 10.9355C90.0517 10.4735 91.2047 10.2424 92.4291 10.2424C93.8912 10.2424 95.2403 10.5636 96.4766 11.206C97.7128 11.8484 98.741 12.7106 99.5612 13.7925L95.6385 15.7874C95.2225 15.3366 94.7292 14.9872 94.1586 14.7392C93.5999 14.4913 93.0234 14.3673 92.4291 14.3673C91.5732 14.3673 90.8005 14.5927 90.1111 15.0435C89.4216 15.4831 88.8748 16.0691 88.4707 16.8017C88.0665 17.523 87.8645 18.3119 87.8645 19.1684C87.8645 20.0137 88.0665 20.8026 88.4707 21.5352C88.8748 22.2565 89.4216 22.8369 90.1111 23.2764C90.8005 23.7159 91.5732 23.9357 92.4291 23.9357C93.0472 23.9357 93.6356 23.8117 94.1943 23.5638C94.753 23.3046 95.2344 22.9608 95.6385 22.5326Z" fill="#5828E3"/>
<path d="M115.649 10.7158H120V27.6211H115.649L115.453 25.5248C114.966 26.2799 114.318 26.8941 113.51 27.3675C112.713 27.8296 111.768 28.0606 110.675 28.0606C109.355 28.0606 108.119 27.8239 106.966 27.3506C105.813 26.8772 104.797 26.2236 103.917 25.3896C103.049 24.5556 102.366 23.592 101.866 22.4988C101.379 21.4056 101.135 20.2335 101.135 18.9825C101.135 17.7766 101.367 16.6439 101.831 15.5845C102.306 14.5251 102.966 13.5953 103.81 12.7951C104.654 11.9949 105.629 11.3694 106.734 10.9186C107.84 10.4678 109.028 10.2424 110.3 10.2424C111.477 10.2424 112.529 10.4904 113.456 10.9863C114.395 11.4821 115.192 12.1133 115.845 12.8796L115.649 10.7158ZM110.568 24.0879C111.495 24.0879 112.315 23.8681 113.028 23.4286C113.741 22.989 114.3 22.3973 114.704 21.6535C115.108 20.8984 115.311 20.07 115.311 19.1684C115.311 18.2555 115.108 17.4272 114.704 16.6833C114.3 15.9282 113.736 15.3309 113.01 14.8914C112.297 14.4518 111.483 14.2321 110.568 14.2321C109.652 14.2321 108.814 14.4575 108.054 14.9083C107.305 15.3478 106.704 15.9395 106.253 16.6833C105.813 17.4272 105.593 18.2555 105.593 19.1684C105.593 20.0813 105.819 20.9097 106.271 21.6535C106.722 22.3973 107.323 22.989 108.071 23.4286C108.832 23.8681 109.664 24.0879 110.568 24.0879Z" fill="#5828E3"/>
<ellipse cx="18" cy="17.8788" rx="18" ry="17.8182" fill="#5828E3"/>
<path d="M23.5271 22.0713L27.4286 24.0227C26.4777 25.2463 25.2681 26.2252 23.7998 26.9593C22.3455 27.6935 20.7653 28.0606 19.0593 28.0606C17.1295 28.0606 15.3676 27.6034 13.7734 26.6889C12.1932 25.7744 10.9277 24.5507 9.9768 23.018C9.03989 21.4724 8.57143 19.7657 8.57143 17.8981C8.57143 16.4813 8.84411 15.1611 9.38948 13.9374C9.93485 12.7009 10.683 11.619 11.6339 10.6916C12.5988 9.75137 13.7175 9.01719 14.99 8.4891C16.2625 7.96101 17.6189 7.69697 19.0593 7.69697C20.7653 7.69697 22.3455 8.06406 23.7998 8.79823C25.2681 9.5324 26.4777 10.5177 27.4286 11.7542L23.5271 13.7056C22.9398 13.0616 22.2546 12.5721 21.4715 12.2372C20.6884 11.8895 19.8843 11.7156 19.0593 11.7156C17.9126 11.7156 16.8708 12.0054 15.9339 12.585C15.011 13.1517 14.2768 13.9052 13.7314 14.8455C13.2001 15.7729 12.9344 16.7904 12.9344 17.8981C12.9344 18.9929 13.2071 20.0105 13.7524 20.9507C14.2978 21.8781 15.0319 22.6252 15.9549 23.1919C16.8918 23.7586 17.9266 24.042 19.0593 24.042C19.9263 24.042 20.7513 23.8617 21.5344 23.501C22.3175 23.1404 22.9817 22.6638 23.5271 22.0713Z" fill="white"/>
</svg>
