<svg width="170" height="96" viewBox="0 0 170 96" fill="none" xmlns="http://www.w3.org/2000/svg">
<rect width="170" height="96" rx="16" fill="white"/>
<g clip-path="url(#clip0_8_202)">
<path d="M67.0636 49.9752L66.3365 52.031H66.2759C66.1547 51.5674 65.9325 50.862 65.5689 50.0155L61.6706 40.2403H57.853V55.8201H60.3779V46.2062C60.3779 45.6015 60.3779 44.9163 60.3577 44.0698C60.3375 43.6465 60.2971 43.324 60.2769 43.0822H60.3375C60.4587 43.6868 60.6 44.1302 60.701 44.4124L65.3871 55.7798H67.1646L71.8103 44.3116C71.9113 44.0496 72.0123 43.5256 72.1133 43.0822H72.1739C72.1133 44.231 72.0729 45.2589 72.0527 45.8837V55.7597H74.7391V40.2H71.063L67.0636 49.9752V49.9752ZM77.2841 44.5938H79.91V55.7597H77.2841V44.5938ZM78.6173 39.8775C78.1729 39.8775 77.8093 40.0387 77.5063 40.3209C77.2034 40.6031 77.0418 40.9659 77.0418 41.4093C77.0418 41.8325 77.2034 42.1953 77.5063 42.4775C77.8093 42.7597 78.1729 42.9008 78.6173 42.9008C79.0616 42.9008 79.4454 42.7395 79.7282 42.4775C80.0312 42.1953 80.1928 41.8325 80.1928 41.4093C80.1928 40.986 80.0312 40.6232 79.7282 40.3209C79.4656 40.0387 79.0818 39.8775 78.6173 39.8775V39.8775ZM89.2216 44.493C88.7368 44.3922 88.2318 44.3318 87.7471 44.3318C86.5553 44.3318 85.4646 44.5938 84.5557 45.1178C83.6467 45.6418 82.9196 46.3674 82.455 47.2744C81.9702 48.2015 81.7279 49.2698 81.7279 50.4992C81.7279 51.5674 81.9702 52.5147 82.4348 53.3814C82.8994 54.2279 83.5457 54.9132 84.4143 55.3767C85.2424 55.8403 86.212 56.0822 87.3027 56.0822C88.555 56.0822 89.6255 55.8201 90.4739 55.3364L90.4941 55.3163V52.8977L90.3931 52.9783C90.0093 53.2604 89.5649 53.5023 89.1206 53.6434C88.656 53.8046 88.2318 53.8853 87.8683 53.8853C86.8179 53.8853 85.9898 53.5829 85.404 52.9178C84.7981 52.2729 84.4951 51.386 84.4951 50.2775C84.4951 49.1287 84.7981 48.2217 85.4242 47.5566C86.0504 46.8915 86.8785 46.5488 87.8885 46.5488C88.7368 46.5488 89.6053 46.831 90.3931 47.3953L90.4941 47.476V44.9163L90.4739 44.8961C90.1305 44.755 89.7467 44.5938 89.2216 44.493V44.493ZM97.8868 44.4124C97.2404 44.4124 96.6345 44.6139 96.1093 45.0372C95.6649 45.4 95.362 45.924 95.0994 46.5488H95.0792V44.5938H92.4534V55.7597H95.0792V50.0558C95.0792 49.0884 95.2812 48.2822 95.7255 47.6977C96.1699 47.093 96.7355 46.7907 97.4222 46.7907C97.6646 46.7907 97.907 46.8511 98.21 46.8915C98.4928 46.9721 98.6947 47.0527 98.8361 47.1535L98.9371 47.2341V44.6139L98.8765 44.5938C98.6947 44.4729 98.3312 44.4124 97.8868 44.4124V44.4124ZM105.037 44.3519C103.199 44.3519 101.725 44.8961 100.694 45.9643C99.6441 47.0325 99.1391 48.5039 99.1391 50.3581C99.1391 52.0915 99.6643 53.5023 100.674 54.5302C101.684 55.538 103.058 56.062 104.775 56.062C106.572 56.062 108.006 55.5178 109.036 54.4294C110.087 53.3411 110.592 51.8899 110.592 50.0961C110.592 48.3225 110.107 46.9116 109.117 45.8837C108.168 44.8558 106.774 44.3519 105.037 44.3519V44.3519ZM107.138 52.938C106.653 53.5628 105.885 53.8651 104.936 53.8651C103.987 53.8651 103.219 53.5628 102.674 52.8977C102.129 52.2729 101.866 51.3659 101.866 50.217C101.866 49.0279 102.149 48.1209 102.674 47.476C103.219 46.831 103.967 46.5085 104.916 46.5085C105.845 46.5085 106.572 46.8108 107.097 47.4356C107.623 48.0604 107.905 48.9674 107.905 50.1566C107.865 51.3659 107.643 52.3132 107.138 52.938V52.938ZM116.449 49.2294C115.621 48.8868 115.096 48.6248 114.854 48.4031C114.652 48.2015 114.551 47.9194 114.551 47.5566C114.551 47.2542 114.672 46.9519 114.975 46.7504C115.278 46.5488 115.621 46.448 116.126 46.448C116.571 46.448 117.035 46.5287 117.48 46.6496C117.924 46.7705 118.328 46.9519 118.651 47.1938L118.752 47.2744V44.8155L118.691 44.7953C118.388 44.6744 117.984 44.5535 117.5 44.4527C117.015 44.3721 116.571 44.3318 116.207 44.3318C114.955 44.3318 113.925 44.6341 113.117 45.2992C112.309 45.924 111.925 46.7705 111.925 47.7581C111.925 48.2822 112.006 48.7457 112.187 49.1287C112.369 49.5116 112.632 49.8744 112.995 50.1767C113.359 50.4589 113.884 50.7814 114.611 51.0837C115.217 51.3457 115.682 51.5473 115.965 51.7085C116.247 51.8698 116.429 52.0511 116.571 52.1922C116.672 52.3535 116.732 52.555 116.732 52.817C116.732 53.5628 116.167 53.9256 115.015 53.9256C114.571 53.9256 114.106 53.8449 113.561 53.6636C113.016 53.4822 112.511 53.2201 112.086 52.9178L111.985 52.8372V55.3969L112.046 55.417C112.43 55.5984 112.894 55.7194 113.46 55.8605C114.026 55.9612 114.531 56.0418 114.975 56.0418C116.328 56.0418 117.439 55.7395 118.227 55.0744C119.035 54.4294 119.459 53.6031 119.459 52.5349C119.459 51.7891 119.257 51.124 118.813 50.6201C118.227 50.1364 117.5 49.6325 116.449 49.2294V49.2294ZM126.387 44.3519C124.549 44.3519 123.075 44.8961 122.044 45.9643C121.014 47.0325 120.489 48.5039 120.489 50.3581C120.489 52.0915 121.014 53.5023 122.024 54.5302C123.034 55.538 124.408 56.062 126.125 56.062C127.922 56.062 129.356 55.5178 130.386 54.4294C131.437 53.3411 131.942 51.8899 131.942 50.0961C131.942 48.3225 131.457 46.9116 130.467 45.8837C129.518 44.8558 128.124 44.3519 126.387 44.3519V44.3519ZM128.468 52.938C127.983 53.5628 127.215 53.8651 126.266 53.8651C125.296 53.8651 124.549 53.5628 124.004 52.8977C123.458 52.2729 123.196 51.3659 123.196 50.217C123.196 49.0279 123.479 48.1209 124.004 47.476C124.549 46.831 125.296 46.5085 126.246 46.5085C127.155 46.5085 127.902 46.8108 128.427 47.4356C128.952 48.0604 129.235 48.9674 129.235 50.1566C129.235 51.3659 128.973 52.3132 128.468 52.938V52.938ZM145.98 46.7504V44.5938H143.334V41.2884L143.253 41.3085L140.748 42.0542L140.688 42.0744V44.5938H136.729V43.1829C136.729 42.538 136.89 42.0341 137.173 41.7116C137.456 41.3891 137.88 41.2279 138.405 41.2279C138.769 41.2279 139.153 41.3085 139.577 41.4899L139.678 41.5504V39.2729L139.617 39.2527C139.254 39.1318 138.769 39.0511 138.143 39.0511C137.355 39.0511 136.668 39.2325 136.042 39.5349C135.416 39.8775 134.951 40.3411 134.608 40.9659C134.265 41.5705 134.083 42.2558 134.083 43.0418V44.5938H132.245V46.7302H134.083V55.7597H136.729V46.7504H140.688V52.4946C140.688 54.8527 141.799 56.0418 144.021 56.0418C144.384 56.0418 144.768 55.9814 145.131 55.9209C145.515 55.8403 145.798 55.7395 145.96 55.6589L145.98 55.6387V53.4822L145.879 53.5628C145.717 53.6636 145.576 53.7442 145.333 53.8046C145.131 53.8651 144.95 53.8853 144.808 53.8853C144.283 53.8853 143.92 53.7643 143.657 53.462C143.415 53.1798 143.293 52.7163 143.293 52.031V46.7504H145.98V46.7504Z" fill="#737373"/>
<path d="M24 35H36.3818V47.355H24V35Z" fill="#F25022"/>
<path d="M37.6743 35H50.0561V47.355H37.6743V35Z" fill="#7FBA00"/>
<path d="M24 48.645H36.3818V61.0001H24V48.645Z" fill="#00A4EF"/>
<path d="M37.6743 48.645H50.0561V61.0001H37.6743V48.645Z" fill="#FFB900"/>
</g>
<defs>
<clipPath id="clip0_8_202">
<rect width="122" height="26" fill="white" transform="translate(24 35)"/>
</clipPath>
</defs>
</svg>
