<svg width="170" height="96" viewBox="0 0 170 96" fill="none" xmlns="http://www.w3.org/2000/svg">
<rect width="170" height="96" rx="16" fill="white"/>
<rect width="170" height="96" rx="16" fill="white"/>
<path d="M112.064 62.64C120.042 62.64 126.534 56.0432 126.534 47.936C126.534 39.824 120.042 33.232 112.064 33.232C104.084 33.232 97.5937 39.824 97.5937 47.936C97.5937 56.0432 104.084 62.64 112.064 62.64ZM112.064 42.6928C114.907 42.6928 117.223 45.0448 117.223 47.9344C117.223 50.824 114.906 53.1728 112.062 53.1728C109.217 53.1728 106.905 50.824 106.905 47.9328C106.905 45.04 109.219 42.6896 112.062 42.6896L112.064 42.6928ZM57.4702 62.64C65.4486 62.64 71.9404 56.0432 71.9404 47.936C71.9404 39.824 65.4486 33.232 57.4702 33.232C49.4934 33.232 43 39.824 43 47.936C43 56.0432 49.4934 62.64 57.4702 62.64ZM57.4702 42.6928C60.3151 42.6928 62.6291 45.0448 62.6291 47.9344C62.6291 50.824 60.3151 53.1728 57.4702 53.1728C54.6269 53.1728 52.3145 50.824 52.3145 47.9328C52.3145 45.04 54.6285 42.6896 57.4702 42.6896V42.6928ZM84.7591 42.3616L80.3166 33.424H69.9149L79.6303 52.976V62.1808H89.8894V52.976L99.6049 33.424H89.1984L84.7607 42.3616H84.7591Z" fill="#EE2E24"/>
</svg>
