<svg width="40" height="40" viewBox="0 0 40 40" fill="none" xmlns="http://www.w3.org/2000/svg">
<circle cx="20" cy="20" r="20" fill="#F64D00"/>
<path d="M20 14V12M20 14C18.8954 14 18 14.8954 18 16C18 17.1046 18.8954 18 20 18M20 14C21.1046 14 22 14.8954 22 16C22 17.1046 21.1046 18 20 18M14 26C15.1046 26 16 25.1046 16 24C16 22.8954 15.1046 22 14 22M14 26C12.8954 26 12 25.1046 12 24C12 22.8954 12.8954 22 14 22M14 26V28M14 22V12M20 18V28M26 26C27.1046 26 28 25.1046 28 24C28 22.8954 27.1046 22 26 22M26 26C24.8954 26 24 25.1046 24 24C24 22.8954 24.8954 22 26 22M26 26V28M26 22V12" stroke="white" stroke-width="2" stroke-linecap="round" stroke-linejoin="round"/>
</svg>
